<svg width="234" height="180" viewBox="0 0 234 180" fill="none" xmlns="http://www.w3.org/2000/svg">
<g clip-path="url(#clip0_1_2)">
<g filter="url(#filter0_d_1_2)">
<path d="M221.589 109.584C220.093 132.736 202.359 154.84 178.336 156.211C150.746 158.328 125.422 143.179 97.9363 143.017C83.9238 141.815 70.7779 147.186 57.1214 148.921C26.2738 150.055 21.5742 113.764 27.3274 90.3708C51.5912 -19.9116 223.268 -4.9068 221.589 109.584Z" fill="url(#paint0_linear_1_2)" fill-opacity="0.2" shape-rendering="crispEdges"/>
</g>
<path d="M106.16 122.468V122.472C106.16 122.472 99.4752 129.96 84.1216 132.52C76.7899 133.744 67.4806 133.848 55.978 131.468L56.6468 124.218C61.5297 126.626 89.3497 128.459 104.15 121.446C104.851 121.115 105.39 120.596 105.746 119.992L106.16 122.468Z" fill="#F4E9DC"/>
<path d="M84.1216 132.523L77.1675 180H51.4833L55.9744 131.468C67.477 133.848 76.7863 133.747 84.1216 132.523Z" fill="#36344C"/>
<path d="M115.695 180H92.3845L84.1216 132.523C99.4752 129.964 106.16 122.476 106.16 122.476L115.695 180Z" fill="#36344C"/>
<path d="M159.664 62.7984L134.145 84.3264C130.61 87.3072 125.54 87.6096 121.675 85.0716L100.619 71.2512C102.467 78.7968 105.225 115.484 105.225 115.484C105.25 115.513 105.282 115.546 105.307 115.571C106.465 116.838 106.548 118.638 105.75 119.984V119.988C105.394 120.596 104.854 121.111 104.153 121.442C89.3533 128.455 61.5333 126.623 56.6504 124.214C52.5117 122.17 54.9748 118.487 54.9748 118.487L57.2077 93.4704L53.576 83.6856L42.3826 101.938C38.6646 108 29.5315 106.769 27.5467 99.9396L20.7041 76.3488C21.1176 75.7188 21.603 75.1572 22.146 74.6604C22.4983 74.3328 22.8759 74.0304 23.2678 73.7568C25.6949 72.0432 28.7333 71.2656 30.8044 70.9092C30.9878 70.8768 31.1676 70.848 31.3366 70.8228C32.462 70.6536 33.1956 70.6212 33.1956 70.6212L35.9858 77.1192C35.9858 77.1192 42.9471 59.598 44.6407 56.5776C45.8776 54.378 53.1733 50.1372 53.1733 50.1372C51.9184 47.2896 53.3603 44.748 56.751 40.2192C57.3335 39.4344 58.1641 38.7252 59.0703 38.1024L74.7008 35.3268C79.7132 37.5804 82.1187 39.0852 82.2841 42.2316C82.2841 42.2316 97.1991 42.246 102.291 45.6696C107.386 49.0968 127.694 67.6152 127.694 67.6152L151.217 53.5716C156.521 54.6912 159.664 62.7984 159.664 62.7984Z" fill="#F2B34E"/>
<path d="M31.3366 70.8264C31.1676 70.8516 30.9914 70.8804 30.8044 70.9128C28.7333 71.2656 25.6949 72.0468 23.2678 73.7604C22.8759 74.034 22.4983 74.3364 22.146 74.664C21.5311 73.3896 20.8407 72.1512 20.0712 70.9596C19.7189 70.7004 19.3809 70.4124 19.0716 70.1064C18.1835 69.2244 17.4572 68.1984 16.7344 67.1724C15.8535 65.9232 14.9725 64.6776 14.0916 63.4284C13.7428 63.144 13.3796 62.8704 13.0093 62.6112C11.2042 61.3404 9.1295 60.3648 7.72357 58.6584C7.49705 58.3848 7.27771 58.0068 7.43951 57.6864C7.55098 57.4596 7.82425 57.3552 8.07595 57.3624C8.32765 57.3732 8.56497 57.4776 8.7915 57.582C10.69 58.4424 12.549 59.382 14.372 60.39C12.2434 58.176 10.3233 55.764 8.63688 53.1972C8.39957 52.8372 8.17304 52.3476 8.44272 52.0164C8.60452 51.8148 8.89937 51.768 9.14747 51.8292C9.39558 51.8904 9.61492 52.0452 9.81987 52.1964C12.2614 53.9928 14.4404 56.142 16.2778 58.554C14.5806 55.8792 12.8762 53.2116 11.179 50.5368C10.9381 50.1588 10.69 49.752 10.6828 49.2984C10.6756 48.8484 11.0208 48.3588 11.4703 48.3912C11.7616 48.4092 11.9953 48.6288 12.1966 48.834C14.6813 51.318 16.9609 54.0036 19.0105 56.862C19.0105 56.862 15.7959 50.4108 14.4475 47.0736C14.3037 46.7208 14.1779 46.2672 14.4404 45.9864C14.6453 45.7704 15.0013 45.7776 15.2566 45.918C15.5155 46.0584 15.7024 46.2996 15.8786 46.5372C18.6078 50.1984 21.3405 53.8524 24.0697 57.5136C24.0697 56.2248 24.0768 54.9288 24.2818 53.658C24.4939 52.362 24.9182 51.0804 25.6985 50.0256C25.9826 49.6404 26.4069 49.2516 26.8743 49.3596C27.2015 49.4316 27.4352 49.7376 27.5251 50.058C27.615 50.3784 27.5899 50.7204 27.5683 51.0516C27.4388 53.0244 27.5036 55.0116 27.7517 56.97C28.0357 59.184 28.5535 61.3584 28.8987 63.5616C29.1072 64.8864 29.2475 66.2256 29.2403 67.5612C29.9378 68.6484 30.639 69.7392 31.3366 70.8264Z" fill="#D36D29"/>
<path d="M40.8472 89.586L37.5679 80.3628C37.2587 79.4952 36.9495 78.6276 36.6402 77.76C36.5575 77.5296 36.2088 77.6664 36.2879 77.8968C37.381 80.9712 38.4741 84.0456 39.5672 87.12C39.8764 87.9876 40.1856 88.8552 40.4948 89.7228C40.5775 89.9496 40.9299 89.8128 40.8472 89.586Z" fill="#EA8C11"/>
<path d="M42.2388 86.0796C41.4477 84.798 40.5632 83.574 39.5923 82.422C39.4377 82.2384 39.1321 82.458 39.2867 82.6452C40.2575 83.7972 41.1421 85.0176 41.9331 86.3028C42.059 86.508 42.3646 86.2848 42.2388 86.0796Z" fill="#EA8C11"/>
<path d="M68.7499 60.696C64.827 58.2912 60.9005 55.8864 57.1573 53.2044C56.1146 52.4556 55.1006 51.6636 54.0255 50.9688C53.8241 50.8392 53.5832 51.1308 53.7882 51.2604C54.7518 51.8832 55.6615 52.5852 56.5892 53.2584C57.5313 53.9388 58.4842 54.6012 59.4478 55.2528C61.3499 56.5344 63.288 57.7656 65.2405 58.9752C66.3552 59.6664 67.477 60.354 68.5953 61.038C68.8002 61.1676 68.9549 60.822 68.7499 60.696Z" fill="#EA8C11"/>
<path d="M82.0288 44.0316C79.893 48.3876 77.5378 52.6392 74.9705 56.7576C74.2477 57.9168 73.507 59.0652 72.7519 60.2028C72.6189 60.4044 72.9101 60.642 73.0432 60.4404C75.7364 56.3832 78.2246 52.1892 80.4935 47.88C81.1371 46.6596 81.7628 45.4284 82.3704 44.1864C82.4783 43.9704 82.1367 43.8156 82.0288 44.0316Z" fill="#EA8C11"/>
<path d="M126.892 68.976C125.925 71.1288 124.958 73.278 123.994 75.4308C123.894 75.654 124.239 75.8088 124.336 75.5856C125.303 73.4328 126.27 71.2836 127.234 69.1308C127.335 68.9076 126.993 68.7528 126.892 68.976Z" fill="#EA8C11"/>
<path d="M125.922 68.8428C124.886 70.2144 123.851 71.586 122.815 72.954C122.668 73.1484 122.959 73.386 123.106 73.1916C124.142 71.82 125.177 70.4484 126.213 69.0804C126.36 68.8896 126.069 68.6484 125.922 68.8428Z" fill="#EA8C11"/>
<path d="M88.4004 78.6564C85.5383 80.0856 82.6761 81.522 79.8714 83.0628C77.0668 84.6072 74.3197 86.2632 71.7164 88.128C70.2493 89.1828 68.829 90.3024 67.477 91.5012C67.2972 91.6596 67.5166 91.9656 67.7 91.8072C70.0839 89.694 72.6728 87.8292 75.3696 86.1372C78.0736 84.438 80.8818 82.908 83.7188 81.4428C85.3189 80.6184 86.9298 79.812 88.5407 79.0056C88.7528 78.8976 88.6198 78.5484 88.4004 78.6564Z" fill="#EA8C11"/>
<path d="M79.9433 88.1568C77.6529 89.0928 75.3588 90.0324 73.0683 90.9684C72.8454 91.0584 72.9784 91.4112 73.205 91.3212L80.08 88.5096C80.3029 88.416 80.1663 88.0632 79.9433 88.1568Z" fill="#EA8C11"/>
<path d="M69.6524 101.131C69.0304 105.188 67.5166 109.098 65.2441 112.514C64.5969 113.486 63.8921 114.415 63.1298 115.297C62.9716 115.481 63.2629 115.718 63.4211 115.535C66.1322 112.385 68.1314 108.644 69.2713 104.645C69.5949 103.511 69.843 102.355 70.0228 101.189C70.0623 100.951 69.6884 100.89 69.6524 101.131Z" fill="#EA8C11"/>
<path d="M96.6706 114.646C94.1248 111.384 92.2946 107.568 91.3489 103.536C91.0828 102.398 90.8887 101.246 90.7628 100.087C90.7376 99.846 90.3637 99.8892 90.3889 100.13C90.8419 104.299 92.2119 108.353 94.3657 111.949C94.9734 112.961 95.6422 113.936 96.3685 114.865C96.516 115.06 96.818 114.84 96.6706 114.646Z" fill="#EA8C11"/>
<path d="M92.0393 116.471C90.7592 117.169 89.3569 117.58 87.933 117.846C86.4444 118.123 84.9306 118.278 83.4204 118.39C80.2741 118.62 77.1063 118.566 73.9709 118.228C73.1079 118.134 72.2449 118.019 71.3856 117.882C70.5837 117.756 69.7136 117.659 69.0304 117.184C68.8326 117.047 68.5917 117.338 68.7931 117.475C69.3648 117.875 70.0336 118.037 70.7132 118.152C71.5042 118.289 72.2989 118.404 73.0935 118.505C74.6972 118.703 76.3117 118.829 77.9261 118.879C81.094 118.976 84.3049 118.829 87.4368 118.314C89.0764 118.044 90.7089 117.623 92.1795 116.824C92.3881 116.708 92.2514 116.356 92.0393 116.471Z" fill="#EA8C11"/>
<path d="M83.9849 99.288C81.076 99.4932 78.1599 99.5472 75.2437 99.4536C75.0064 99.4464 74.9417 99.8172 75.1862 99.8244C78.1347 99.9216 81.0868 99.8676 84.0281 99.6624C84.269 99.6444 84.2258 99.27 83.9849 99.288Z" fill="#EA8C11"/>
<path d="M68.6025 62.19C67.7934 66.2436 66.988 70.2936 66.179 74.3472C66.0351 75.06 67.1534 75.2364 67.2936 74.5236C68.1027 70.47 68.9081 66.42 69.7171 62.3664C69.861 61.6536 68.7463 61.4772 68.6025 62.19Z" fill="#F4E9DC"/>
<path d="M77.412 74.124C75.9018 70.3008 74.5534 66.4164 73.3668 62.478C73.1582 61.7796 72.1047 62.1936 72.3132 62.8884C73.4962 66.8268 74.8482 70.7112 76.3584 74.5344C76.6245 75.2112 77.678 74.8008 77.412 74.124Z" fill="#F4E9DC"/>
<path d="M19.6254 55.7964C17.8707 57.132 16.231 58.6152 14.7244 60.2316C14.559 60.408 14.8503 60.6456 15.0157 60.4692C16.4971 58.878 18.1152 57.4164 19.8447 56.1024C20.0425 55.9548 19.8195 55.6488 19.6254 55.7964Z" fill="#AA3617"/>
<path d="M21.7001 60.2928C21.1859 62.0244 20.6681 63.756 20.1539 65.4876C20.0856 65.718 20.456 65.7756 20.5243 65.5452C21.0385 63.8136 21.5563 62.082 22.0704 60.3504C22.1424 60.12 21.7684 60.066 21.7001 60.2928Z" fill="#AA3617"/>
<path d="M74.3844 30.5496L74.6972 32.184C74.9022 33.2532 74.8914 34.3224 74.7008 35.3376C74.5138 36.3348 74.1471 37.2816 73.6365 38.1384V38.142C72.4319 40.1472 70.4255 41.652 67.9696 42.1236C65.5102 42.5988 63.0867 41.9436 61.2277 40.5216C60.3683 39.87 59.6348 39.0564 59.0739 38.1132C58.5848 37.2924 58.2289 36.3744 58.0383 35.388L57.7255 33.7536C53.0834 34.6464 51.7278 28.8396 53.4502 27.1656C53.4969 27.1188 53.5437 27.0792 53.5904 27.0396C54.7914 26.0172 55.9384 26.856 56.3483 27.2304C56.3915 27.216 56.4274 27.1944 56.4634 27.1656C58.8222 25.8588 60.4834 23.3604 60.7782 20.6748C62.2812 21.4812 64.0827 21.7152 65.7403 21.3192C67.3979 20.9232 68.9009 19.8972 69.8754 18.5004C70.2241 20.646 71.4107 22.644 73.1259 23.9796L73.1618 24.192C73.1618 24.192 73.6544 22.7736 74.9022 22.6692C75.197 22.644 75.5314 22.6872 75.9162 22.8456C78.1383 23.7564 79.0336 29.6604 74.3844 30.5496Z" fill="#D36D29"/>
<path d="M76.3944 45.9432L71.4071 60.282L61.5477 48.798L61.4326 45.8172L61.2241 40.518C63.0795 41.94 65.5066 42.5952 67.966 42.12C70.4219 41.6484 72.4283 40.1436 73.6329 38.1384L76.3944 45.9432Z" fill="#D36D29"/>
<path d="M74.9058 22.6584V22.6692C73.658 22.7736 73.1654 24.192 73.1654 24.192L73.1295 23.9796C71.4143 22.644 70.2313 20.646 69.879 18.5004C68.9045 19.9008 67.4015 20.9232 65.7439 21.3192C64.0827 21.7152 62.2812 21.4812 60.7818 20.6748C60.4834 23.3604 58.8222 25.8552 56.467 27.1656C56.431 27.1908 56.3915 27.216 56.3519 27.2304C55.942 26.8524 54.795 26.0172 53.594 27.0396C53.0331 26.892 52.5045 26.5572 52.091 26.1144C51.6775 25.6716 51.3718 25.128 51.2532 24.5556C51.0231 23.4144 51.4941 22.158 52.4182 21.4488C51.1669 20.7396 50.4945 19.1412 50.8577 17.7444C51.2244 16.3548 52.598 15.2928 54.0363 15.2928C53.1481 14.5656 52.8353 13.2768 53.105 12.1608C53.3783 11.0484 54.1549 10.1052 55.0934 9.4392C57.4414 7.7724 60.6632 7.776 63.3563 8.7912C66.0172 9.7992 68.2609 11.6604 70.3572 13.5828L70.4866 13.4424C71.1878 12.7116 72.4391 12.726 73.2733 13.2984C74.1111 13.8708 74.5678 14.8716 74.7332 15.8688C74.9022 16.8696 74.8159 17.8884 74.7871 18.9036C74.7439 20.1564 74.7835 21.4128 74.9058 22.6584Z" fill="#36344C"/>
<path d="M73.6365 38.1384C73.6365 38.1384 71.8386 47.1276 61.4362 45.8136L61.2277 40.5144C63.0831 41.9364 65.5102 42.5916 67.9696 42.1164C70.4219 41.6484 72.4319 40.1436 73.6365 38.1384Z" fill="#AA3617"/>
<path d="M67.5705 32.7528C66.5889 33.0984 65.6037 33.4224 64.6112 33.732C64.5429 31.4316 64.4458 29.1312 64.3092 26.8308C64.2948 26.5896 63.9209 26.64 63.9352 26.8812C64.0755 29.2572 64.1798 31.6332 64.2445 34.0128C64.2481 34.146 64.3991 34.1928 64.5034 34.1604C65.5821 33.8292 66.6536 33.4728 67.7143 33.0984C67.9445 33.0192 67.797 32.67 67.5705 32.7528Z" fill="#AA3617"/>
<path d="M70.0444 32.9256C70.2241 34.4016 69.5338 35.9136 68.3112 36.756C68.1099 36.8928 68.3436 37.1916 68.5413 37.0548C69.8718 36.1404 70.6125 34.4808 70.4183 32.8788C70.3859 32.634 70.012 32.6844 70.0444 32.9256Z" fill="#36344C"/>
<path d="M60.6739 34.8804C61.4901 34.8804 62.1518 34.218 62.1518 33.4008C62.1518 32.5836 61.4901 31.9212 60.6739 31.9212C59.8578 31.9212 59.1961 32.5836 59.1961 33.4008C59.1961 34.218 59.8578 34.8804 60.6739 34.8804Z" fill="#AA3617"/>
<path d="M72.0651 31.482C72.8813 31.482 73.543 30.8196 73.543 30.0024C73.543 29.1852 72.8813 28.5228 72.0651 28.5228C71.249 28.5228 70.5873 29.1852 70.5873 30.0024C70.5873 30.8196 71.249 31.482 72.0651 31.482Z" fill="#AA3617"/>
<path d="M61.119 30.5072C61.6804 30.3398 61.9684 29.6419 61.7621 28.9482C61.5557 28.2546 60.9334 27.8281 60.3719 27.9955C59.8104 28.1628 59.5225 28.8608 59.7288 29.5544C59.9351 30.248 60.5575 30.6746 61.119 30.5072Z" fill="#36344C"/>
<path d="M68.9029 28.4837C69.4644 28.3163 69.7523 27.6184 69.546 26.9248C69.3397 26.2311 68.7173 25.8046 68.1558 25.972C67.5944 26.1394 67.3065 26.8373 67.5128 27.5309C67.7191 28.2245 68.3414 28.6511 68.9029 28.4837Z" fill="#36344C"/>
<path d="M60.9688 26.0208C60.8465 25.8732 60.6739 25.7544 60.4762 25.7364C60.4079 25.7364 60.3431 25.7364 60.2748 25.7364C60.1418 25.7544 60.0195 25.8048 59.9117 25.8876L58.4302 26.7912C58.2792 26.8848 58.1677 27.1152 58.1462 27.2844C58.121 27.4716 58.1749 27.7056 58.2972 27.8496C58.4194 27.9972 58.592 28.116 58.7898 28.134C58.8581 28.134 58.9228 28.134 58.9912 28.134C59.1242 28.116 59.2465 28.0656 59.3543 27.9828L60.8358 27.0792C60.9868 26.9856 61.0982 26.7552 61.1198 26.586C61.145 26.4024 61.091 26.1684 60.9688 26.0208Z" fill="#36344C"/>
<path d="M66.3012 24.4332C66.3264 24.2424 66.4019 24.048 66.5565 23.9256C66.6141 23.8896 66.668 23.85 66.7255 23.814C66.8478 23.7564 66.9772 23.7312 67.1139 23.742L68.847 23.688C69.0232 23.6808 69.2425 23.8176 69.354 23.9436C69.4762 24.084 69.5589 24.3108 69.5374 24.5016C69.5122 24.6924 69.4367 24.8868 69.2821 25.0092C69.2245 25.0452 69.1706 25.0848 69.1131 25.1208C68.9908 25.1784 68.8614 25.2036 68.7247 25.1928L66.9916 25.2468C66.8154 25.254 66.5961 25.1172 66.4846 24.9912C66.3588 24.8472 66.2761 24.6204 66.3012 24.4332Z" fill="#36344C"/>
<path d="M167.132 75.0096L166.474 75.3984L165.73 75.8412L154.457 82.5012L153.476 83.0808L150.595 77.7888L145.231 89.1432L140.128 99.936C140.434 101.351 140.711 102.971 140.973 104.764C141.351 107.363 141.678 110.322 141.973 113.526C137.37 113.13 133.296 112.496 129.697 111.697C113.243 108.047 106.663 100.991 104.527 97.9848C106.652 93.9132 108.238 91.3428 108.238 91.3428L108.583 74.7216L104.258 77.5872L103.506 76.4856L95.5379 64.8396L94.7684 63.7164C94.7684 63.7164 105.275 54.7452 111.089 53.9028C111.197 53.8884 111.309 53.8776 111.413 53.8668C114.883 53.5392 119.111 53.4528 121.916 53.4348H121.984V53.8596C122.743 56.6388 124.771 59.0436 127.392 60.2424C130.093 61.4808 133.361 61.3944 135.997 60.0228C138.543 58.7016 140.448 56.2032 141.063 53.406C142.271 53.406 143.674 53.4096 145.162 53.4276C147.05 53.4492 149.391 53.5104 151.699 54.0036C154.81 54.6624 157.866 56.106 159.675 59.2956C162.817 64.8432 167.132 75.0096 167.132 75.0096Z" fill="#6BB2AB"/>
<path d="M142.376 118.57C140.948 118.926 139.513 119.221 138.079 119.459C136.173 119.776 134.267 119.995 132.376 120.121C115.659 121.295 100.079 115.906 97.156 114.829C99.3709 108.374 102.248 102.323 104.516 97.974C106.652 100.98 113.232 108.036 129.686 111.686C133.286 112.486 137.363 113.119 141.962 113.515C142.095 114.955 142.217 116.446 142.332 117.972C142.347 118.17 142.361 118.372 142.376 118.57Z" fill="#6BB2AB"/>
<path d="M103.492 76.4784C103.172 76.6404 87.2714 84.6072 82.7156 85.2444C77.9369 85.9104 74.2585 82.0512 75.855 77.4936L86.4444 47.2032C85.4735 41.7204 82.1871 36.954 80.1303 31.7772C79.9505 31.3236 79.8319 30.6936 80.2526 30.4452C80.6805 30.1932 81.1803 30.618 81.4931 31.0068C82.8451 32.6952 84.1755 34.4052 85.4735 36.1296C84.5674 33.2496 83.9454 30.276 83.6146 27.2772C83.5678 26.8596 83.5894 26.3304 83.9669 26.1504C84.4308 25.9344 84.8838 26.4492 85.1319 26.8956C86.7392 29.808 88.0121 32.9148 88.911 36.1224C88.5047 32.8284 88.3285 29.502 88.3789 26.1792C88.3897 25.6464 88.5263 24.9696 89.0477 24.8868C89.3209 24.8436 89.5978 25.0164 89.7596 25.236C89.9214 25.4628 89.9969 25.7364 90.0689 26.01C90.939 29.3616 91.6366 32.7528 92.158 36.1728C91.8451 32.8536 91.9638 29.4984 92.496 26.2116C92.5715 25.7472 92.7189 25.2072 93.154 25.0416C93.5423 24.8976 93.981 25.1388 94.2039 25.488C94.4268 25.8336 94.4772 26.262 94.5275 26.6688C95.0957 31.482 95.6638 36.2952 96.2319 41.1084C97.4832 39.7044 98.9646 38.5056 100.601 37.5804C101.043 37.3284 101.629 37.1052 102.025 37.4256C102.316 37.6596 102.355 38.106 102.226 38.4552C102.096 38.8008 101.834 39.0816 101.586 39.3588C100.608 40.4532 99.7629 41.6628 99.0761 42.9588C98.2994 44.4204 97.7241 45.99 96.8575 47.4012C96.0305 48.7512 94.1536 50.148 94.1536 50.148L91.3741 67.5972L95.5271 64.8324L103.492 76.4784Z" fill="#E88846"/>
<path d="M194.247 76.3704C184.442 87.21 176.039 93.7692 170.584 97.416C167.161 99.7092 162.515 98.4852 160.66 94.8096L154.454 82.494L165.726 75.834L167.866 81.342L190.375 70.2324L194.247 76.3704Z" fill="#E88846"/>
<path d="M109.13 68.8428C108.874 70.6536 108.695 72.4716 108.594 74.2968C108.58 74.538 108.954 74.5992 108.964 74.3544C109.065 72.5292 109.245 70.7076 109.5 68.9004C109.536 68.6628 109.162 68.6016 109.13 68.8428Z" fill="#389688"/>
<path d="M150.448 76.6728C149.916 75.2832 149.47 73.8648 149.107 72.4212C149.049 72.1872 148.697 72.324 148.754 72.558C149.118 74.0016 149.567 75.42 150.096 76.8096C150.185 77.0364 150.534 76.8996 150.448 76.6728Z" fill="#389688"/>
<path d="M151.203 72.6768C151.07 73.8468 150.933 75.0132 150.8 76.1832C150.772 76.4244 151.146 76.4856 151.171 76.2408C151.304 75.0708 151.44 73.9044 151.573 72.7344C151.602 72.4932 151.228 72.432 151.203 72.6768Z" fill="#389688"/>
<path d="M123.638 81.774C120.366 82.9872 116.641 82.5876 113.721 80.6688C112.956 80.1648 112.247 79.5672 111.625 78.894C111.463 78.7176 111.158 78.9372 111.319 79.1172C113.703 81.7092 117.177 83.0952 120.686 82.8144C121.74 82.728 122.783 82.494 123.775 82.1268C124.002 82.0404 123.865 81.6876 123.638 81.774Z" fill="#389688"/>
<path d="M145.356 83.0376C142.318 84.7548 138.575 84.9528 135.389 83.5236C134.551 83.1492 133.76 82.6704 133.038 82.1016C132.851 81.954 132.581 82.2204 132.771 82.368C135.537 84.546 139.183 85.3632 142.606 84.528C143.634 84.276 144.623 83.88 145.547 83.358C145.759 83.2428 145.569 82.9188 145.356 83.0376Z" fill="#389688"/>
<path d="M93.6682 35.2476C90.9858 35.298 88.3213 35.748 85.7684 36.5688C85.5383 36.6444 85.6749 36.9936 85.905 36.9216C88.4292 36.108 91.0613 35.6724 93.7113 35.622C93.9522 35.6184 93.9091 35.244 93.6682 35.2476Z" fill="#C4532C"/>
<path d="M92.0429 49.4712C90.8959 48.9168 89.7524 48.3624 88.6054 47.8116C88.3861 47.7072 88.2314 48.0492 88.4508 48.1536C89.5978 48.708 90.7412 49.2624 91.8883 49.8132C92.104 49.9212 92.2586 49.5756 92.0429 49.4712Z" fill="#C4532C"/>
<path d="M140.168 40.8168L140.071 42.39C139.923 44.7336 138.776 46.7892 137.068 48.1572C135.558 49.374 133.606 50.058 131.527 49.9248C129.233 49.7808 127.22 48.672 125.853 47.0268C124.58 45.5004 123.865 43.506 124.002 41.3784L124.099 39.8052C119.618 39.5208 119.748 33.8616 121.729 32.7348C123.214 31.8888 124.135 33.102 124.401 33.5304C124.458 33.6168 124.483 33.6744 124.483 33.6744L124.494 33.5088C128.766 32.4036 132.789 30.3732 136.216 27.594C136.658 27.234 137.086 26.8704 137.503 26.4852L137.547 26.532C137.597 26.9208 137.658 27.306 137.734 27.6912C138.208 30.1356 139.175 32.4828 140.56 34.5492L140.553 34.686C140.553 34.686 141.754 32.8716 143.4 34.1028C143.778 34.3872 144.051 34.848 144.213 35.4024C144.235 35.4816 144.256 35.5644 144.274 35.6472C144.738 37.7928 143.595 41.0292 140.168 40.8168Z" fill="#E88846"/>
<path d="M141.052 53.3952C140.438 56.1924 138.532 58.6944 135.986 60.012C133.35 61.3836 130.082 61.4664 127.381 60.2316C124.76 59.0328 122.732 56.628 121.974 53.8488V53.424H122.049C123.735 53.4132 124.868 53.4312 124.965 53.4312L125.095 52.506L125.861 47.0268C127.227 48.6756 129.244 49.7844 131.535 49.9248C133.613 50.058 135.565 49.374 137.076 48.1572L137.805 53.4096C138.507 53.4024 139.646 53.3952 141.052 53.3952Z" fill="#E88846"/>
<path d="M151.685 53.9928C149.376 53.4996 147.036 53.4384 145.148 53.4168C143.659 53.3988 142.261 53.3952 141.049 53.3952C139.643 53.3952 138.503 53.4024 137.798 53.4096L137.068 48.1572C138.773 46.7892 139.923 44.7336 140.071 42.39L140.168 40.8168C143.591 41.0328 144.734 37.7928 144.274 35.6436C144.256 35.5608 144.238 35.478 144.213 35.3988C144.051 34.8444 143.778 34.38 143.4 34.0992C141.754 32.8716 140.553 34.6824 140.553 34.6824L140.56 34.5456C139.179 32.4792 138.208 30.132 137.734 27.6876C137.658 27.3024 137.593 26.9172 137.547 26.5284L137.503 26.4816C137.086 26.8668 136.655 27.2304 136.216 27.5904C132.789 30.3696 128.762 32.4 124.494 33.5052C124.465 33.5124 124.429 33.5196 124.401 33.5268C124.138 33.0984 123.214 31.8852 121.729 32.7312C119.748 33.858 119.615 39.5172 124.099 39.8016L124.002 41.3748C123.865 43.5024 124.58 45.4968 125.853 47.0232L124.962 53.424C124.868 53.424 123.735 53.406 122.045 53.4168H121.902C119.097 53.4348 114.868 53.5212 111.399 53.8488C111.294 53.8596 111.183 53.8704 111.075 53.8848C109.23 53.1396 108.044 51.0012 108.421 49.0356C108.903 46.494 111.453 44.9136 112.632 42.6132C114.034 39.8808 113.319 36.5616 113.905 33.5448C114.775 29.0808 118.845 25.4484 123.376 25.0956C124.167 21.5784 127.159 18.6552 130.69 17.9496C134.159 17.2548 137.967 18.738 140.071 21.582C142.095 21.24 144.235 22.482 145.32 24.2712C146.5 26.2044 146.647 28.6056 146.381 30.8592C146.212 32.3208 145.896 33.8724 146.273 35.2548C146.291 35.3232 146.309 35.3916 146.334 35.46C146.396 35.64 146.464 35.8128 146.55 35.9892C147.126 37.152 148.251 37.9188 149.189 38.8188C150.142 39.7368 150.941 40.842 151.34 42.102C151.735 43.362 151.71 44.784 151.11 45.9576C150.815 46.5372 150.38 47.1096 150.444 47.7576C150.495 48.2472 150.822 48.654 151.088 49.0644C152.016 50.508 152.192 52.362 151.685 53.9928Z" fill="#AF3737"/>
<path d="M133.12 40.9824C132.135 40.968 131.146 40.9356 130.161 40.8852C130.855 38.8116 131.517 36.7308 132.146 34.6392C132.211 34.4196 131.862 34.3404 131.797 34.56C131.146 36.72 130.459 38.8728 129.744 41.0148C129.704 41.1372 129.823 41.2272 129.927 41.2308C130.995 41.2884 132.067 41.3244 133.135 41.3388C133.368 41.3424 133.35 40.9824 133.12 40.9824Z" fill="#C4532C"/>
<path d="M126.767 40.7016C127.541 40.7016 128.169 40.073 128.169 39.2976C128.169 38.5222 127.541 37.8936 126.767 37.8936C125.992 37.8936 125.364 38.5222 125.364 39.2976C125.364 40.073 125.992 40.7016 126.767 40.7016Z" fill="#C4532C"/>
<path d="M138.025 41.4108C138.799 41.4108 139.427 40.7822 139.427 40.0068C139.427 39.2314 138.799 38.6028 138.025 38.6028C137.25 38.6028 136.622 39.2314 136.622 40.0068C136.622 40.7822 137.25 41.4108 138.025 41.4108Z" fill="#C4532C"/>
<path d="M129.189 35.6938C129.232 35.0092 128.817 34.426 128.262 34.3912C127.707 34.3563 127.222 34.883 127.18 35.5676C127.137 36.2522 127.552 36.8354 128.107 36.8702C128.662 36.9051 129.146 36.3784 129.189 35.6938Z" fill="#36344C"/>
<path d="M136.782 36.4443C136.824 35.7598 136.409 35.1766 135.854 35.1417C135.299 35.1069 134.815 35.6336 134.772 36.3181C134.729 37.0027 135.144 37.5859 135.699 37.6207C136.254 37.6556 136.739 37.1289 136.782 36.4443Z" fill="#36344C"/>
<path d="M129.442 32.8212C129.381 32.652 129.266 32.4864 129.097 32.4072C129.036 32.3856 128.978 32.364 128.917 32.3424C128.791 32.3136 128.665 32.3208 128.543 32.3604L126.928 32.6772C126.763 32.7096 126.59 32.8824 126.515 33.0228C126.432 33.1812 126.403 33.408 126.465 33.5772C126.526 33.7464 126.641 33.912 126.81 33.9912C126.871 34.0128 126.928 34.0344 126.99 34.056C127.115 34.0848 127.241 34.0776 127.364 34.038L128.978 33.7176C129.143 33.6852 129.316 33.5124 129.391 33.372C129.474 33.2208 129.503 32.994 129.442 32.8212Z" fill="#36344C"/>
<path d="M134.71 33.1524C134.792 32.9904 134.925 32.8428 135.105 32.7852C135.166 32.7708 135.231 32.7564 135.292 32.742C135.421 32.7312 135.544 32.7528 135.659 32.8068L137.219 33.3252C137.378 33.3792 137.529 33.57 137.586 33.7212C137.651 33.8868 137.651 34.1172 137.565 34.2756C137.482 34.4376 137.349 34.5852 137.169 34.6428C137.108 34.6572 137.043 34.6716 136.982 34.686C136.853 34.6968 136.73 34.6752 136.615 34.6212L135.055 34.1028C134.897 34.0488 134.745 33.858 134.688 33.7068C134.627 33.5448 134.627 33.3144 134.71 33.1524Z" fill="#36344C"/>
<path d="M137.068 48.1572C137.068 48.1572 133.509 52.47 125.271 51.192L125.853 47.0268C127.22 48.6756 129.237 49.7844 131.527 49.9248C133.609 50.058 135.558 49.374 137.068 48.1572Z" fill="#C4532C"/>
<path d="M135.116 44.9856C134.361 45.7488 133.228 46.0224 132.207 45.7056C131.301 45.4284 130.042 44.3628 130.697 43.308C131.207 42.4908 132.347 42.6852 133.081 43.1388C133.257 42.9444 133.447 42.768 133.674 42.6348C134.113 42.3864 134.684 42.3324 135.148 42.5628C135.569 42.7716 135.806 43.2 135.781 43.668C135.756 44.172 135.465 44.6364 135.116 44.9856Z" fill="#F4E9DC"/>
<path d="M144.102 180H123.998L118.45 135.749L107.141 180H85.2614C85.2614 180 91.7552 133.654 95.7321 119.401C96.16 117.868 96.6418 116.341 97.1596 114.833C100.662 116.125 122.344 123.606 142.379 118.573C144.256 144.043 144.102 180 144.102 180Z" fill="#F2B34E"/>
<path d="M144.105 145.393C125.296 142.56 117.716 122.753 117.716 122.753C105.189 136.732 90.9174 137.916 90.9174 137.916C91.579 126.54 97.3142 111.614 99.2631 106.83C99.5327 106.164 100.435 106.06 100.856 106.646C106.131 113.951 112.366 118.206 118.41 120.622C129.474 125.035 139.913 123.264 142.732 122.656C143.145 122.566 143.555 122.821 143.648 123.235C145.928 133.607 144.105 145.393 144.105 145.393Z" fill="#D36A3C"/>
<path d="M117.716 121.601L110.913 154.303C110.913 154.303 116.828 157.763 125.152 154.303L121.592 123.696L117.716 121.601Z" fill="#D36A3C"/>
<path d="M117.716 122.753L117.856 157.763C117.856 157.763 123.948 160.434 130.492 155.246L121.592 123.696L117.716 122.753Z" fill="#D36A3C"/>
<path d="M124.918 124.009C123.872 125.593 123.074 127.642 121.344 128.578C118.856 129.143 114.966 127.62 114.451 124.88C114.131 122.954 116.087 117.652 118.777 118.339C120.87 119.138 126.195 121.111 124.918 124.009Z" fill="#D36A3C"/>
<path d="M124.663 123.743C124.232 125.093 123.322 126.252 122.103 126.976C120.737 127.786 119.021 127.962 117.511 127.487C117.281 127.415 117.127 127.757 117.357 127.829C119.816 128.603 122.549 127.76 124.091 125.68C124.491 125.14 124.8 124.538 125.005 123.901C125.08 123.671 124.735 123.512 124.663 123.743Z" fill="#C13A0A"/>
<path d="M118.468 128.524C118.356 132.008 118.241 135.49 118.13 138.974C118.018 142.474 117.903 145.973 117.792 149.472C117.727 151.434 117.666 153.396 117.601 155.358C117.594 155.596 117.964 155.66 117.972 155.416C118.083 151.931 118.198 148.45 118.31 144.965C118.421 141.466 118.536 137.966 118.648 134.467C118.712 132.505 118.773 130.543 118.838 128.581C118.849 128.344 118.475 128.282 118.468 128.524Z" fill="#C13A0A"/>
<path d="M120.611 120.161C118.299 121.453 116.673 123.858 116.328 126.486C116.296 126.727 116.67 126.785 116.699 126.544C117.033 124.002 118.597 121.712 120.83 120.467C121.046 120.348 120.819 120.046 120.611 120.161Z" fill="#C13A0A"/>
<path d="M114.171 121.655C111.46 119.747 108.695 117.922 105.876 116.179C105.077 115.686 104.275 115.2 103.47 114.718C103.262 114.595 103.107 114.937 103.315 115.06C106.134 116.741 108.903 118.505 111.618 120.348C112.395 120.874 113.164 121.41 113.934 121.946C114.128 122.083 114.369 121.792 114.171 121.655Z" fill="#C13A0A"/>
<path d="M113.412 122.328C110.385 121.698 107.393 120.917 104.448 119.974C103.614 119.707 102.787 119.426 101.96 119.135C101.733 119.056 101.575 119.398 101.805 119.477C104.739 120.51 107.724 121.396 110.748 122.119C111.614 122.324 112.481 122.519 113.355 122.702C113.588 122.749 113.649 122.378 113.412 122.328Z" fill="#C13A0A"/>
<path d="M138.352 129.434C135.166 128.495 132.016 127.44 128.906 126.277C128.025 125.946 127.148 125.608 126.274 125.258C126.047 125.168 125.893 125.51 126.119 125.6C129.233 126.839 132.394 127.969 135.59 128.981C136.489 129.265 137.388 129.539 138.294 129.805C138.525 129.877 138.579 129.503 138.352 129.434Z" fill="#C13A0A"/>
<path d="M133.088 132.422C130.236 130.648 127.565 128.588 125.12 126.292C124.944 126.126 124.706 126.418 124.882 126.583C127.356 128.905 130.053 130.975 132.933 132.768C133.138 132.894 133.293 132.548 133.088 132.422Z" fill="#C13A0A"/>
<path d="M119.917 154.735C119.91 154.494 119.536 154.537 119.543 154.778C119.568 155.732 119.59 156.69 119.615 157.644C119.622 157.885 119.996 157.842 119.989 157.601C119.964 156.647 119.942 155.693 119.917 154.735Z" fill="#C13A0A"/>
<path d="M121.916 153.025C121.909 152.784 121.535 152.827 121.542 153.068C121.589 154.584 121.636 156.096 121.682 157.612C121.689 157.853 122.063 157.81 122.056 157.568C122.01 156.053 121.963 154.537 121.916 153.025Z" fill="#C13A0A"/>
<path d="M123.735 155.084C123.703 154.843 123.329 154.886 123.361 155.128C123.466 155.898 123.57 156.665 123.678 157.435C123.71 157.676 124.084 157.633 124.052 157.392C123.944 156.622 123.84 155.855 123.735 155.084Z" fill="#C13A0A"/>
<path d="M126.076 156.791C125.702 155.416 125.418 154.019 125.224 152.608C125.192 152.366 124.818 152.41 124.85 152.651C125.048 154.094 125.343 155.524 125.727 156.928C125.789 157.162 126.141 157.021 126.076 156.791Z" fill="#C13A0A"/>
<path d="M127.802 155.948L127.313 154.343C127.284 154.246 127.159 154.202 127.069 154.235C126.968 154.274 126.932 154.382 126.961 154.48C127.123 155.016 127.288 155.552 127.45 156.085C127.479 156.182 127.604 156.226 127.694 156.193C127.799 156.15 127.835 156.046 127.802 155.948Z" fill="#C13A0A"/>
<path d="M129.6 155.171C129.111 154.008 128.618 152.842 128.129 151.679C128.036 151.456 127.684 151.592 127.777 151.816L129.248 155.308C129.345 155.531 129.697 155.394 129.6 155.171Z" fill="#C13A0A"/>
<path d="M112.761 150.286C112.578 151.405 112.391 152.521 112.208 153.641C112.168 153.882 112.538 153.94 112.578 153.698C112.761 152.579 112.948 151.463 113.132 150.343C113.175 150.106 112.801 150.048 112.761 150.286Z" fill="#C13A0A"/>
<path d="M114.027 152.633C113.941 153.238 113.854 153.839 113.768 154.444C113.732 154.685 114.106 154.742 114.139 154.501C114.225 153.896 114.311 153.295 114.397 152.69C114.433 152.453 114.059 152.395 114.027 152.633Z" fill="#C13A0A"/>
<path d="M116.192 150.602L115.868 154.688C115.85 154.93 116.22 154.991 116.238 154.746L116.562 150.66C116.584 150.422 116.21 150.361 116.192 150.602Z" fill="#C13A0A"/>
<path d="M191.317 93.9996L191.209 95.8176C201.155 114.527 203.495 159.44 203.495 159.44C202.909 159.577 202.33 159.71 201.751 159.833C194.37 161.428 187.358 161.852 180.925 161.557C176.118 161.345 171.63 160.722 167.56 159.887C156.269 157.579 148.154 153.623 145.116 151.978C144.253 151.513 143.796 151.236 143.796 151.236C146.705 130.666 159.175 107.381 159.175 107.381L158.315 103.302C158.556 105.005 158.538 108.864 154.454 112.133C151.89 114.181 146.892 116.305 142.332 117.976C142.217 116.449 142.095 114.959 141.962 113.519C141.667 110.315 141.34 107.352 140.962 104.756L146.651 100.314C146.651 100.314 146.029 95.76 145.223 89.1396C145.076 87.9264 144.929 86.7132 144.796 85.5432C143.922 77.9688 145.601 71.3376 149.607 69.5844C151.372 68.8068 154.694 67.4316 157.474 66.3048C161.577 71.2116 166.521 75.4092 172.019 78.6636C175.654 73.6236 178.21 67.8024 179.462 61.7076C179.469 61.6752 179.476 61.6392 179.483 61.6068C180.652 61.488 182.658 61.2684 183.881 61.1028C187.685 60.5952 192.572 63.252 194.247 66.78C195.919 70.308 199.447 82.062 199.447 82.062L201.331 76.3956L201.572 76.4388L209.554 77.9148L210.194 78.03C210.579 100.566 207.141 104.792 202.97 105.073C198.803 105.354 196.933 102.139 196.933 102.139L191.317 93.9996Z" fill="#F2B34E"/>
<path d="M167.56 159.887L157.708 180H139.172L145.116 151.978C148.154 153.623 156.269 157.579 167.56 159.887Z" fill="#36344C"/>
<path d="M202.938 180H184.373L180.929 161.557C187.361 161.852 194.373 161.424 201.755 159.829L202.938 180Z" fill="#36344C"/>
<path d="M158.139 102.463C158.168 102.564 158.247 102.856 158.312 103.288L158.139 102.463Z" fill="#F2B34E"/>
<path d="M217.54 57.4164C216.692 59.9076 215.102 62.082 214.034 64.4868C213.322 66.0852 212.844 67.7808 212.219 69.4188C211.615 70.9992 210.859 72.5472 209.698 73.7748C209.648 75.1536 209.601 76.5324 209.551 77.9148L201.568 76.4388C201.805 75.1284 202.039 73.8108 202.269 72.5004C201.352 71.1756 200.939 69.5664 200.604 67.9824C200.248 66.3048 199.957 64.5804 199.163 63.0612C198.469 61.7292 197.393 60.534 197.189 59.0508C197.142 58.7052 197.174 58.302 197.451 58.0896C197.645 57.942 197.922 57.9384 198.152 58.0212C198.382 58.104 198.576 58.2588 198.763 58.4172C200.364 59.7708 201.672 61.4628 202.579 63.3492C203.143 61.1064 203.704 58.86 204.268 56.61C204.768 54.6228 205.272 52.6284 205.98 50.7096C206.059 50.4972 206.16 50.2668 206.372 50.1984C206.663 50.1048 206.94 50.3748 207.073 50.652C207.325 51.1668 207.339 51.768 207.343 52.3404C207.354 55.4292 207.195 57.996 206.696 61.0416C207.4 57.9168 208.048 55.3104 209.044 52.2684C209.302 51.4728 209.597 50.6628 210.162 50.0472C210.324 49.8708 210.55 49.7016 210.78 49.7628C211.032 49.8348 211.125 50.1336 211.172 50.3856C211.517 52.308 211.273 54.2916 210.874 56.2032C210.547 57.7908 210.112 59.3604 209.831 60.9516C210.831 58.3524 211.852 55.764 213.118 53.2836C213.391 52.74 213.686 52.1928 214.117 51.7608C214.326 51.552 214.617 51.3648 214.89 51.4656C215.192 51.5772 215.268 51.9624 215.271 52.2864C215.275 52.9848 215.138 53.6832 214.969 54.36C214.674 55.5516 214.268 56.7144 213.862 57.87C213.312 59.4396 212.762 61.0056 212.208 62.5752C213.567 60.5808 215.088 58.6872 216.746 56.9304C216.925 56.736 217.199 56.5272 217.436 56.6568C217.68 56.79 217.634 57.1536 217.54 57.4164Z" fill="#F99958"/>
<path d="M211.855 62.946C210.133 61.9056 208.235 61.1784 206.261 60.786C206.023 60.7392 205.966 61.11 206.203 61.1568C208.145 61.5384 210.007 62.262 211.701 63.2844C211.909 63.414 212.064 63.072 211.855 62.946Z" fill="#D36D29"/>
<path d="M207.31 74.2464C206.25 73.89 205.185 73.5372 204.125 73.1808C203.898 73.1052 203.74 73.4472 203.97 73.5228C205.034 73.8792 206.095 74.232 207.156 74.5884C207.386 74.664 207.541 74.322 207.31 74.2464Z" fill="#D36D29"/>
<path d="M159.034 103.72C157.895 99.2844 156.755 94.8528 155.611 90.4176L154.651 86.6808C154.59 86.4468 154.241 86.5836 154.299 86.8176C155.439 91.2528 156.579 95.6844 157.722 100.12L158.682 103.856C158.743 104.094 159.096 103.954 159.034 103.72Z" fill="#EA8C11"/>
<path d="M171.494 94.302C168.915 96.7212 165.277 97.8912 161.771 97.5204C160.775 97.416 159.8 97.1856 158.862 96.8328C158.635 96.7464 158.481 97.092 158.707 97.1748C162.105 98.46 166.021 98.136 169.207 96.408C170.116 95.9148 170.958 95.3136 171.713 94.6044C171.889 94.4424 171.67 94.1364 171.494 94.302Z" fill="#EA8C11"/>
<path d="M188.491 91.08C185.912 93.4992 182.274 94.6692 178.768 94.2984C177.772 94.194 176.797 93.9636 175.859 93.6108C175.632 93.5244 175.478 93.87 175.704 93.9528C179.102 95.238 183.018 94.914 186.204 93.186C187.113 92.6928 187.955 92.0916 188.71 91.3824C188.886 91.2204 188.667 90.9144 188.491 91.08Z" fill="#EA8C11"/>
<path d="M189.828 82.7352C189.702 81.7848 189.576 80.838 189.451 79.8876C189.418 79.6464 189.044 79.6896 189.077 79.9308C189.519 83.2464 189.958 86.562 190.4 89.8776C190.526 90.828 190.652 91.7748 190.777 92.7252C190.81 92.9664 191.184 92.9232 191.151 92.682C190.713 89.3664 190.27 86.0508 189.828 82.7352Z" fill="#EA8C11"/>
<path d="M189.174 85.41C188.318 83.8728 187.588 82.2708 186.991 80.6148C186.908 80.388 186.556 80.5248 186.639 80.7516C187.25 82.4364 187.994 84.0672 188.868 85.6296C188.99 85.8456 189.292 85.6224 189.174 85.41Z" fill="#EA8C11"/>
<path d="M198.807 82.8144C198.17 85.3308 197.645 87.876 197.235 90.4392C197.196 90.6804 197.57 90.738 197.606 90.4968C198.016 87.9336 198.541 85.3884 199.177 82.872C199.238 82.638 198.868 82.5804 198.807 82.8144Z" fill="#EA8C11"/>
<path d="M192.593 99.4104C188.555 101.57 184.302 103.324 179.918 104.648C178.832 104.976 177.736 105.278 176.635 105.552C177.455 104.965 178.261 104.36 178.998 103.676C179.455 103.255 179.89 102.805 180.274 102.319C180.666 101.826 181.065 101.275 181.292 100.685C181.486 100.181 181.508 99.5796 181.127 99.1512C180.706 98.6796 180.044 98.7948 179.537 99.0504C178.466 99.594 177.567 100.505 176.93 101.516C176.236 102.614 175.837 103.864 175.668 105.145C175.186 104.134 174.679 103.133 174.025 102.226C173.306 101.228 172.277 100.066 170.997 99.8532C169.886 99.6696 168.667 100.508 168.969 101.729C169.128 102.366 169.595 102.877 170.052 103.324C170.519 103.781 171.044 104.184 171.598 104.533C172.63 105.185 173.77 105.642 174.946 105.952C172.162 106.571 169.343 107.021 166.506 107.294C163.946 107.543 161.372 107.647 158.801 107.608C158.56 107.604 158.603 107.978 158.844 107.982C163.436 108.05 168.035 107.662 172.551 106.823C173.525 106.643 174.496 106.438 175.463 106.214C175.373 107.183 175.204 108.148 174.931 109.084C174.805 109.516 174.633 109.976 174.252 110.246C173.892 110.502 173.32 110.48 173.166 110.002C173.09 109.771 172.741 109.908 172.813 110.138C172.961 110.596 173.453 110.855 173.921 110.783C174.435 110.704 174.823 110.297 175.046 109.847C175.323 109.289 175.452 108.63 175.578 108.022C175.697 107.446 175.776 106.859 175.83 106.272C176.495 107.359 177.236 108.45 178.405 109.033C179.48 109.57 180.864 109.508 181.702 108.569C181.864 108.389 181.572 108.148 181.411 108.331C180.623 109.213 179.307 109.134 178.358 108.58C177.365 108.004 176.722 107.021 176.136 106.056C179.401 105.271 182.612 104.26 185.729 103.014C188.12 102.06 190.454 100.976 192.723 99.7632C192.942 99.648 192.805 99.2952 192.593 99.4104ZM172.454 104.591C171.432 104.051 170.397 103.313 169.707 102.373C169.365 101.905 169.106 101.261 169.494 100.739C169.804 100.325 170.365 100.148 170.864 100.213C172.026 100.364 172.971 101.437 173.629 102.323C174.403 103.36 174.967 104.53 175.517 105.7C174.453 105.455 173.417 105.102 172.454 104.591ZM176.003 105.534C176.229 103.295 177.196 101.099 179.077 99.774C179.476 99.4932 180.105 99.036 180.623 99.2448C181.234 99.4896 181.073 100.296 180.85 100.75C180.361 101.761 179.566 102.643 178.746 103.396C177.89 104.184 176.952 104.864 176.003 105.534Z" fill="#AF3737"/>
<path d="M195.926 116.226C193.32 113.994 191.227 111.179 189.839 108.04C189.443 107.147 189.109 106.232 188.829 105.3C188.76 105.066 188.408 105.206 188.476 105.437C189.476 108.781 191.238 111.895 193.586 114.476C194.244 115.2 194.945 115.88 195.689 116.518C195.873 116.676 196.11 116.381 195.926 116.226Z" fill="#EA8C11"/>
<path d="M163.677 110.063C162.763 113.515 160.969 116.719 158.528 119.318C157.83 120.06 157.082 120.748 156.287 121.381C156.097 121.532 156.32 121.838 156.51 121.687C159.369 119.405 161.638 116.402 163.062 113.029C163.461 112.086 163.788 111.114 164.051 110.124C164.112 109.886 163.741 109.829 163.677 110.063Z" fill="#EA8C11"/>
<path d="M186.599 56.0448V56.0484C185.765 56.6136 184.819 57.0168 183.834 57.2292C183.834 57.2292 183.413 55.1052 182.015 52.5204C182.313 54.99 182.453 57.4704 182.453 57.4704C181.141 58.104 175.564 59.2596 174.881 59.436L174.341 57.3444C175.654 56.0304 176.51 54.2736 176.686 52.3584C176.743 51.786 176.733 51.192 176.657 50.5908L176.456 49.0176C180.062 48.5568 180.44 44.7876 179.372 42.8184C179.275 42.6384 179.167 42.4764 179.048 42.3324C178.854 42.0912 178.624 41.9004 178.376 41.778C176.61 40.9212 175.762 42.696 175.679 42.8796C175.672 42.8724 175.668 42.8616 175.665 42.8544C174.755 40.7448 174.115 38.5164 173.763 36.2448C173.64 35.4528 173.554 34.6572 173.504 33.8544C173.514 34.668 173.486 35.4816 173.417 36.288C173.299 37.7172 173.058 39.1392 172.731 40.5288C171.598 41.1804 170.408 41.724 169.174 42.156C169.358 40.3848 169.369 38.6028 169.21 36.828C169.131 35.9784 169.016 35.1288 168.858 34.2864C168.836 35.154 168.797 36.0252 168.732 36.8892C168.617 38.5308 168.43 40.1688 168.168 41.7924C167.067 42.3252 159.563 44.8452 159.542 44.8596C159.236 44.5176 158.071 43.4016 156.726 44.55C154.986 46.0404 155.928 51.6528 160.404 51.0804L160.606 52.6464C160.901 54.9432 162.141 56.8908 163.878 58.1616L163.874 60.0912C161.106 60.4728 158.258 60.264 155.575 59.4756C155.198 57.456 155.112 55.3896 155.313 53.3484C154.472 55.2528 153.875 57.2688 153.555 59.328C152.08 59.2092 150.639 58.7016 149.416 57.87C149.204 55.404 149.855 52.9164 150.757 50.6052C151.717 48.168 152.961 45.8424 153.86 43.3836C155.022 40.194 155.626 36.7308 157.535 33.9264C158.858 31.9788 160.76 30.4632 162.889 29.4408C164.572 28.9152 166.316 28.5732 168.067 28.5912H168.085C170.242 28.62 172.425 29.2212 174.122 30.5568C176.445 32.382 177.563 35.3016 178.912 37.9332C179.58 39.2472 180.328 40.5144 181.091 41.778C181.198 41.958 181.31 42.138 181.418 42.318C182.288 43.7616 183.162 45.198 183.942 46.6884C185.463 49.5864 186.642 52.7724 186.599 56.0448Z" fill="#36344C"/>
<path d="M176.456 49.0176L176.657 50.5908C176.733 51.192 176.743 51.786 176.686 52.3584C176.51 54.2736 175.654 56.0304 174.341 57.3444C173.119 58.572 171.497 59.4216 169.66 59.6556C167.535 59.9292 165.492 59.3388 163.878 58.1616C162.141 56.8908 160.901 54.9432 160.606 52.6464L160.404 51.0804C155.928 51.6528 154.986 46.0404 156.726 44.55C158.071 43.4016 159.236 44.5176 159.542 44.8596C159.563 44.8452 167.067 42.3252 168.168 41.7924C168.43 40.1688 168.617 38.5308 168.732 36.8892C168.797 36.0252 168.836 35.154 168.858 34.2864C169.016 35.1288 169.131 35.9784 169.21 36.828C169.369 38.6028 169.358 40.3848 169.174 42.156C170.408 41.724 171.598 41.1804 172.731 40.5288C173.058 39.1392 173.299 37.7172 173.417 36.288C173.486 35.4816 173.514 34.668 173.504 33.8544C173.554 34.6572 173.64 35.4528 173.763 36.2448C174.115 38.5164 174.755 40.7448 175.665 42.8544L175.672 42.894C175.672 42.894 175.672 42.8904 175.679 42.8832V42.8796C175.762 42.696 176.61 40.9212 178.376 41.778C178.624 41.9004 178.854 42.0912 179.048 42.3324C179.167 42.4764 179.275 42.6384 179.372 42.8184C180.44 44.7876 180.062 48.5568 176.456 49.0176Z" fill="#F99958"/>
<path d="M179.483 61.6068C179.476 61.6392 179.469 61.6752 179.462 61.7076C178.21 67.8024 175.654 73.6236 172.019 78.6636C166.521 75.4092 161.577 71.2116 157.474 66.3048C160.825 64.9332 163.867 63.72 163.867 63.72H163.871V62.8704L163.874 60.0912L163.878 58.1616C165.492 59.3388 167.535 59.9292 169.66 59.6556C171.497 59.4216 173.119 58.572 174.341 57.3444L174.881 59.436L175.542 61.9524C176.15 61.9092 177.682 61.7868 179.483 61.6068Z" fill="#F99958"/>
<path d="M169.426 51.0408C168.498 51.2064 167.564 51.354 166.629 51.4872C166.906 49.4136 167.154 47.3364 167.366 45.2592C167.387 45.0396 167.046 45.0324 167.024 45.2484C166.801 47.3976 166.546 49.5432 166.258 51.6852C166.24 51.8076 166.373 51.8688 166.47 51.858C167.484 51.7176 168.495 51.5592 169.505 51.3792C169.725 51.336 169.645 51.0012 169.426 51.0408Z" fill="#D36D29"/>
<path d="M163.152 51.9516C163.892 51.9516 164.493 51.3504 164.493 50.6088C164.493 49.8672 163.892 49.266 163.152 49.266C162.411 49.266 161.81 49.8672 161.81 50.6088C161.81 51.3504 162.411 51.9516 163.152 51.9516Z" fill="#D36D29"/>
<path d="M173.86 50.58C174.6 50.58 175.201 49.9788 175.201 49.2372C175.201 48.4956 174.6 47.8944 173.86 47.8944C173.119 47.8944 172.518 48.4956 172.518 49.2372C172.518 49.9788 173.119 50.58 173.86 50.58Z" fill="#D36D29"/>
<path d="M163.981 48.0774C164.509 48.0097 164.869 47.4256 164.786 46.7728C164.702 46.1201 164.207 45.6458 163.679 45.7135C163.151 45.7812 162.791 46.3653 162.874 47.0181C162.958 47.6708 163.453 48.1451 163.981 48.0774Z" fill="#36344C"/>
<path d="M171.252 47.4076C171.78 47.3399 172.14 46.7558 172.056 46.103C171.973 45.4502 171.477 44.976 170.949 45.0437C170.421 45.1114 170.061 45.6955 170.145 46.3483C170.228 47.001 170.724 47.4753 171.252 47.4076Z" fill="#36344C"/>
<path d="M164.496 44.0424C164.406 43.8948 164.27 43.7616 164.097 43.7148C164.036 43.704 163.975 43.6932 163.917 43.686C163.795 43.6824 163.677 43.7112 163.569 43.7688L162.109 44.3592C161.961 44.4204 161.828 44.6112 161.782 44.7588C161.731 44.9208 161.746 45.1404 161.836 45.288C161.925 45.4356 162.062 45.5688 162.235 45.6156C162.296 45.6264 162.357 45.6372 162.414 45.6444C162.537 45.648 162.655 45.6192 162.763 45.5616L164.223 44.9712C164.371 44.91 164.504 44.7192 164.55 44.5716C164.601 44.4096 164.586 44.19 164.496 44.0424Z" fill="#36344C"/>
<path d="M169.509 43.398C169.559 43.2324 169.656 43.0668 169.814 42.9804C169.872 42.9552 169.926 42.93 169.983 42.9048C170.102 42.8688 170.221 42.8688 170.339 42.8976L171.9 43.1028C172.058 43.1244 172.234 43.2756 172.317 43.4088C172.407 43.5528 172.446 43.7688 172.4 43.9344C172.349 44.1 172.252 44.2656 172.094 44.352C172.037 44.3772 171.983 44.4024 171.925 44.4276C171.806 44.4636 171.688 44.4636 171.569 44.4348L170.009 44.2296C169.85 44.208 169.671 44.0568 169.591 43.9236C169.502 43.7796 169.458 43.5636 169.509 43.398Z" fill="#36344C"/>
<path d="M174.341 57.3444C174.341 57.3444 173.547 62.6184 163.874 62.8704L163.878 60.0912L163.882 58.1616C165.496 59.3388 167.538 59.9292 169.663 59.6556C171.497 59.4216 173.119 58.572 174.341 57.3444Z" fill="#D36D29"/>
<path d="M175.665 61.6932C174.057 64.6128 172.288 67.4424 170.368 70.1676C168.049 67.9968 165.838 65.7144 163.748 63.3168C163.597 63.144 163.306 63.3528 163.457 63.5292C165.607 65.9952 167.887 68.3532 170.282 70.5816C170.35 70.6428 170.48 70.632 170.534 70.5564C172.515 67.7556 174.334 64.8468 175.988 61.8408C176.103 61.6392 175.776 61.4916 175.665 61.6932Z" fill="#36344C"/>
<path d="M170.57 73.116C171.378 73.116 172.033 72.46 172.033 71.6508C172.033 70.8416 171.378 70.1856 170.57 70.1856C169.761 70.1856 169.106 70.8416 169.106 71.6508C169.106 72.46 169.761 73.116 170.57 73.116Z" fill="#AF3737"/>
<path d="M172.367 54.4572C171.853 55.3176 170.89 55.8072 169.89 55.7244C168.995 55.6488 167.898 54.9576 168.153 53.9136C168.257 53.4744 168.631 53.1504 169.052 53.0208C169.422 52.9056 169.804 52.9344 170.174 53.0244C170.282 52.7328 170.429 52.4556 170.663 52.2396C171.033 51.8904 171.587 51.7176 172.058 51.9732C172.961 52.4628 172.82 53.7048 172.367 54.4572Z" fill="#F4E9DC"/>
<path d="M196.753 69.264C196.448 70.4484 195.754 71.7588 194.65 72.3744C194.15 72.648 193.489 72.5976 193.305 71.9712C193.115 71.3232 193.593 70.6716 193.791 70.0812C194.208 68.868 194.29 67.5468 194.053 66.2868C193.604 67.4892 193.151 68.688 192.611 69.8544C192.338 70.4484 192.039 71.0352 191.712 71.604C191.421 72.1116 191.126 72.6984 190.659 73.0656C190.256 73.386 189.656 73.494 189.231 73.1556C188.8 72.8064 188.739 72.1944 188.843 71.6796C188.969 71.064 189.202 70.4592 189.407 69.8616C189.253 70.1964 189.098 70.5312 188.944 70.8696C188.681 71.4384 188.458 72.126 187.984 72.5544C187.606 72.9 186.984 73.0476 186.563 72.702C186.103 72.324 186.11 71.6184 186.161 71.0856C186.222 70.3512 186.459 69.642 186.685 68.9472C186.916 68.2488 187.157 67.5576 187.405 66.8664C187.656 66.1608 187.915 65.4624 188.181 64.764C187.699 65.592 187.221 66.4236 186.739 67.2516C186.351 67.9212 185.959 68.598 185.571 69.2712C185.283 69.7572 185.017 70.3512 184.478 70.6068C183.996 70.8408 183.421 70.7076 183.18 70.2072C182.939 69.7068 183.05 69.0732 183.133 68.544C183.464 66.438 184.427 64.5012 185.636 62.7516C185.244 62.64 184.852 62.5212 184.463 62.4096C184.33 62.622 184.19 62.8236 184.021 63.0108C183.604 63.4716 183.079 63.8352 182.5 64.0584C182.047 64.2348 181.411 64.35 181.04 63.9576C180.616 63.5076 180.932 62.7552 181.076 62.2512C181.249 61.668 181.482 61.074 181.907 60.6276C182.367 60.1416 182.986 59.9148 183.622 59.7636C184.37 59.5872 185.132 59.4468 185.894 59.328C187.423 59.0796 189.019 58.968 190.529 59.3928C191.935 59.7852 193.179 60.5808 194.355 61.4268C194.912 61.83 195.459 62.2728 195.876 62.8236C196.3 63.3852 196.541 64.044 196.696 64.728C197.023 66.1788 197.127 67.806 196.753 69.264Z" fill="#E88846"/>
<path d="M191.601 62.9424L189.285 69.75C189.206 69.9768 189.551 70.1352 189.627 69.9048L191.942 63.0972C192.022 62.8704 191.68 62.712 191.601 62.9424Z" fill="#C4532C"/>
<path d="M194.139 64.1268C194.064 64.7928 193.985 65.4552 193.909 66.1212C193.88 66.3624 194.254 66.42 194.28 66.1788C194.355 65.5128 194.434 64.8504 194.51 64.1844C194.539 63.9468 194.168 63.8856 194.139 64.1268Z" fill="#C4532C"/>
<path d="M189.551 62.2872C189.479 62.2296 189.343 62.226 189.285 62.3124C188.8 63.072 188.386 63.8712 188.052 64.71C187.962 64.9332 188.304 65.0916 188.393 64.8648C188.717 64.0584 189.109 63.2808 189.576 62.55C189.634 62.4672 189.638 62.3556 189.551 62.2872Z" fill="#C4532C"/>
<path d="M186.75 61.7364C186.721 61.6968 186.678 61.668 186.628 61.6608C186.581 61.6572 186.524 61.6608 186.488 61.6932C186.279 61.884 186.071 62.0784 185.862 62.2692C185.823 62.3052 185.794 62.3376 185.787 62.3916C185.779 62.4384 185.79 62.496 185.819 62.532C185.848 62.5716 185.891 62.6004 185.941 62.6076C185.988 62.6112 186.045 62.6076 186.081 62.5752C186.29 62.3844 186.499 62.19 186.707 61.9992C186.747 61.9632 186.775 61.9308 186.783 61.8768C186.79 61.83 186.779 61.7724 186.75 61.7364Z" fill="#C4532C"/>
</g>
<defs>
<filter id="filter0_d_1_2" x="20.2068" y="15.2005" width="216.394" height="166.213" filterUnits="userSpaceOnUse" color-interpolation-filters="sRGB">
<feFlood flood-opacity="0" result="BackgroundImageFix"/>
<feColorMatrix in="SourceAlpha" type="matrix" values="0 0 0 0 0 0 0 0 0 0 0 0 0 0 0 0 0 0 127 0" result="hardAlpha"/>
<feOffset dx="5" dy="15"/>
<feGaussianBlur stdDeviation="5"/>
<feComposite in2="hardAlpha" operator="out"/>
<feColorMatrix type="matrix" values="0 0 0 0 0 0 0 0 0 0 0 0 0 0 0 0 0 0 0.25 0"/>
<feBlend mode="normal" in2="BackgroundImageFix" result="effect1_dropShadow_1_2"/>
<feBlend mode="normal" in="SourceGraphic" in2="effect1_dropShadow_1_2" result="shape"/>
</filter>
<linearGradient id="paint0_linear_1_2" x1="174.767" y1="-23.7209" x2="49.8837" y2="189.07" gradientUnits="userSpaceOnUse">
<stop offset="0.337997" stop-color="#EDDAC5" stop-opacity="0"/>
<stop offset="0.881596" stop-color="#EDDAC5"/>
</linearGradient>
<clipPath id="clip0_1_2">
<rect width="233.721" height="180" fill="white"/>
</clipPath>
</defs>
</svg>
